<?xml version="1.0" encoding="utf-8"?>
<!-- Generator: Adobe Illustrator 22.1.0, SVG Export Plug-In . SVG Version: 6.00 Build 0)  -->
<svg version="1.1" id="Layer_1" xmlns="http://www.w3.org/2000/svg" xmlns:xlink="http://www.w3.org/1999/xlink" x="0px" y="0px"
	 viewBox="0 0 30 24" style="enable-background:new 0 0 30 24;" xml:space="preserve">
<style type="text/css">
	.st0{fill:#191919;}
</style>
<path class="st0" d="M20,20.7L9.2,18L0,18v2h8.9L22,23.3V20h8v-2H20V20.7z M6,6h4V4H4v10H2V2h10v14h6v-2h-4V0H0v16h6V6z M16,0v12h2
	V2h10v12h-2V8h-2v8h6V0H16z M26,6V4h-6v12h2V6H26z M10,16V8H8v8H10z"/>
</svg>
